<?xml version="1.0" encoding="UTF-8"?>
<svg id="Camada_1" data-name="Camada 1" xmlns="http://www.w3.org/2000/svg" viewBox="0 0 593.78 460.44">
  <defs>
    <style>
      .cls-1 {
        opacity: .1;
      }

      .cls-1, .cls-2, .cls-3, .cls-4, .cls-5, .cls-6, .cls-7, .cls-8, .cls-9, .cls-10, .cls-11, .cls-12, .cls-13, .cls-14, .cls-15, .cls-16, .cls-17, .cls-18, .cls-19, .cls-20, .cls-21, .cls-22 {
        fill: none;
        stroke: #fff;
        stroke-miterlimit: 10;
        stroke-width: .5px;
      }

      .cls-2 {
        opacity: .27;
      }

      .cls-3 {
        opacity: .36;
      }

      .cls-4 {
        opacity: .23;
      }

      .cls-5 {
        opacity: .74;
      }

      .cls-6 {
        opacity: .79;
      }

      .cls-8 {
        opacity: .61;
      }

      .cls-9 {
        opacity: .83;
      }

      .cls-10 {
        opacity: .66;
      }

      .cls-11 {
        opacity: .91;
      }

      .cls-12 {
        opacity: .44;
      }

      .cls-13 {
        opacity: .31;
      }

      .cls-14 {
        opacity: .4;
      }

      .cls-15 {
        opacity: .57;
      }

      .cls-16 {
        opacity: .14;
      }

      .cls-17 {
        opacity: .96;
      }

      .cls-18 {
        opacity: .19;
      }

      .cls-19 {
        opacity: .7;
      }

      .cls-20 {
        opacity: .49;
      }

      .cls-21 {
        opacity: .87;
      }

      .cls-22 {
        opacity: .53;
      }

      .cls-23 {
        opacity: .5;
      }
    </style>
  </defs>
  <g class="cls-23">
    <rect class="cls-1" x="46" y="31.33" width="235.11" height="235.11"/>
    <rect class="cls-16" x="64.16" y="44.54" width="224.2" height="224.2" transform="translate(-7.6 9) rotate(-2.86)"/>
    <rect class="cls-18" x="82" y="57.43" width="213.89" height="213.89" transform="translate(-16.17 20.68) rotate(-6.01)"/>
    <rect class="cls-4" x="99.5" y="69.98" width="204.3" height="204.3" transform="translate(-25.55 35.49) rotate(-9.46)"/>
    <rect class="cls-2" x="116.59" y="82.11" width="195.53" height="195.53" transform="translate(-35.5 53.88) rotate(-13.24)"/>
    <rect class="cls-13" x="133.21" y="93.78" width="187.68" height="187.68" transform="translate(-45.63 76.26) rotate(-17.35)"/>
    <rect class="cls-3" x="149.31" y="104.93" width="180.87" height="180.87" transform="translate(-55.41 103.01) rotate(-21.8)"/>
    <rect class="cls-14" x="164.82" y="115.49" width="175.24" height="175.24" transform="translate(-64.18 134.34) rotate(-26.57)"/>
    <rect class="cls-12" x="179.69" y="125.41" width="170.9" height="170.9" transform="translate(-71.18 170.24) rotate(-31.61)"/>
    <rect class="cls-20" x="193.87" y="134.63" width="167.94" height="167.94" transform="translate(-75.59 210.43) rotate(-36.87)"/>
    <rect class="cls-22" x="207.32" y="143.13" width="166.44" height="166.44" transform="translate(-76.7 254.3) rotate(-42.27)"/>
    <rect class="cls-15" x="220.02" y="150.88" width="166.44" height="166.44" transform="translate(-73.96 301) rotate(-47.73)"/>
    <rect class="cls-8" x="231.97" y="157.87" width="167.94" height="167.94" transform="translate(-67.1 349.49) rotate(-53.13)"/>
    <rect class="cls-10" x="243.19" y="164.14" width="170.9" height="170.9" transform="translate(-56.16 398.66) rotate(-58.39)"/>
    <rect class="cls-19" x="253.71" y="169.71" width="175.24" height="175.24" transform="translate(-41.48 447.55) rotate(-63.43)"/>
    <rect class="cls-5" x="263.6" y="174.64" width="180.87" height="180.87" transform="translate(-23.57 495.34) rotate(-68.2)"/>
    <rect class="cls-6" x="272.89" y="178.99" width="187.68" height="187.68" transform="translate(-3.06 541.48) rotate(-72.65)"/>
    <rect class="cls-9" x="281.67" y="182.81" width="195.53" height="195.53" transform="translate(19.41 585.65) rotate(-76.76)"/>
    <rect class="cls-21" x="289.98" y="186.17" width="204.3" height="204.3" transform="translate(43.27 627.71) rotate(-80.54)"/>
    <rect class="cls-11" x="297.88" y="189.12" width="213.89" height="213.89" transform="translate(68.01 667.67) rotate(-83.99)"/>
    <rect class="cls-17" x="305.43" y="191.71" width="224.2" height="224.2" transform="translate(93.24 705.64) rotate(-87.14)"/>
    <rect class="cls-7" x="312.67" y="194" width="235.11" height="235.11"/>
  </g>
</svg>