<?xml version="1.0" encoding="UTF-8"?>
<svg id="Camada_1" data-name="Camada 1" xmlns="http://www.w3.org/2000/svg" viewBox="0 0 593.78 460.44">
  <defs>
    <style>
      .cls-1 {
        fill: none;
        stroke: #fff;
        stroke-miterlimit: 10;
        stroke-width: .5px;
      }

      .cls-2 {
        opacity: .5;
      }
    </style>
  </defs>
  <g class="cls-2">
    <path class="cls-1" d="M548.22,429.41H46.45V31.03c178.87,138.45,289.63,226.88,501.77,398.38Z"/>
    <path class="cls-1" d="M528.89,429.41c8.01-6.56-469.86-9.79-463.18-15.32V46.35c171.99,133.13,259.19,218.15,463.18,383.06Z"/>
    <path class="cls-1" d="M509.56,429.41c16.03-13.12-437.94-19.58-424.58-30.64V61.68c165.11,127.8,228.75,209.43,424.58,367.74Z"/>
    <path class="cls-1" d="M490.22,429.41c24.04-19.69-406.03-29.37-385.98-45.97V77c158.23,122.48,198.31,200.7,385.98,352.41Z"/>
    <path class="cls-1" d="M470.89,429.41c32.05-26.25-374.11-39.16-347.38-61.29V92.32c151.35,117.15,167.88,191.98,347.38,337.09Z"/>
    <path class="cls-1" d="M451.56,429.41c40.07-32.81-342.19-48.96-308.78-76.61V107.64c144.47,111.83,137.44,183.25,308.78,321.77Z"/>
    <path class="cls-1" d="M432.22,429.41c48.08-39.37-310.28-58.75-270.19-91.93V122.97c137.59,106.5,107,174.52,270.19,306.45Z"/>
    <path class="cls-1" d="M412.89,429.41c56.09-45.93-278.36-68.54-231.59-107.26v-183.87c130.71,101.18,76.56,165.8,231.59,291.13Z"/>
    <path class="cls-1" d="M393.56,429.41c64.11-52.49-246.45-78.33-192.99-122.58v-153.22c123.83,95.85,46.12,157.07,192.99,275.8Z"/>
    <path class="cls-1" d="M374.22,429.41c72.12-59.06-214.53-88.12-154.39-137.9v-122.58c116.95,90.53,15.68,148.35,154.39,260.48Z"/>
    <path class="cls-1" d="M354.89,429.41c80.13-65.62-182.61-97.91-115.79-153.22v-91.93c110.07,85.2-14.76,139.62,115.79,245.16Z"/>
    <path class="cls-1" d="M335.56,429.41c88.15-72.18-150.7-107.7-77.2-168.55v-61.29c103.19,79.88-45.19,130.89,77.2,229.84Z"/>
    <path class="cls-1" d="M316.22,429.41c96.16-78.74-118.78-117.49-38.6-183.87v-30.64c96.31,74.55-75.63,122.17,38.6,214.51Z"/>
    <path class="cls-1" d="M296.89,429.41c104.17-85.3-86.87-127.29,0-199.19h0c89.43,69.23-106.07,113.44,0,199.19Z"/>
    <path class="cls-1" d="M277.56,429.41c112.19-91.87-54.95-137.08,38.6-214.51v30.64c82.56,63.9-136.51,104.71-38.6,183.87Z"/>
    <path class="cls-1" d="M258.22,429.41c120.2-98.43-23.04-146.87,77.2-229.84v61.29c75.68,58.58-166.95,95.99-77.2,168.55Z"/>
    <path class="cls-1" d="M238.89,429.41c128.21-104.99,8.88-156.66,115.79-245.16v91.93c68.8,53.25-197.39,87.26-115.79,153.22Z"/>
    <path class="cls-1" d="M219.56,429.41c136.23-111.55,40.8-166.45,154.39-260.48v122.58c61.92,47.93-227.83,78.54-154.39,137.9Z"/>
    <path class="cls-1" d="M200.22,429.41c144.24-118.11,72.71-176.24,192.99-275.8v153.22c55.04,42.6-258.26,69.81-192.99,122.58Z"/>
    <path class="cls-1" d="M180.89,429.41c152.25-124.67,104.63-186.03,231.59-291.13v183.87c48.16,37.28-288.7,61.08-231.59,107.26Z"/>
    <path class="cls-1" d="M161.56,429.41c160.27-131.24,136.54-195.82,270.19-306.45v214.51c41.28,31.95-319.14,52.36-270.19,91.93Z"/>
    <path class="cls-1" d="M142.22,429.41c168.28-137.8,168.46-205.62,308.78-321.77v245.16c34.4,26.63-349.58,43.63-308.78,76.61Z"/>
    <path class="cls-1" d="M122.89,429.41c176.29-144.36,200.38-215.41,347.38-337.09v275.8c27.52,21.3-380.02,34.9-347.38,61.29Z"/>
    <path class="cls-1" d="M103.56,429.41c184.31-150.92,232.29-225.2,385.98-352.41v306.45c20.64,15.98-410.46,26.18-385.98,45.97Z"/>
    <path class="cls-1" d="M84.22,429.41C276.54,271.93,348.43,194.42,508.8,61.68v337.09c13.76,10.65-440.9,17.45-424.58,30.64Z"/>
    <path class="cls-1" d="M64.89,429.41c200.33-164.05,296.12-244.78,463.18-383.06v367.74c6.88,5.33-471.33,8.73-463.18,15.32Z"/>
    <path class="cls-1" d="M45.56,429.41h501.77V31.03C373.6,174.84,253.9,258.81,45.56,429.41Z"/>
  </g>
</svg>