<?xml version="1.0" encoding="UTF-8"?>
<svg id="Camada_1" data-name="Camada 1" xmlns="http://www.w3.org/2000/svg" xmlns:xlink="http://www.w3.org/1999/xlink" viewBox="0 0 595.28 841.89">
  <defs>
    <style>
      .cls-1 {
        opacity: .1;
      }

      .cls-1, .cls-2, .cls-3, .cls-4, .cls-5, .cls-6, .cls-7, .cls-8, .cls-9, .cls-10, .cls-11, .cls-12, .cls-13, .cls-14, .cls-15, .cls-16, .cls-17, .cls-18, .cls-19, .cls-20, .cls-21, .cls-22, .cls-23, .cls-24 {
        fill: none;
        stroke-miterlimit: 10;
        stroke-width: .5px;
      }

      .cls-1, .cls-2, .cls-3, .cls-4, .cls-5, .cls-6, .cls-7, .cls-8, .cls-9, .cls-10, .cls-11, .cls-12, .cls-13, .cls-14, .cls-15, .cls-16, .cls-17, .cls-20, .cls-21, .cls-22, .cls-23, .cls-24 {
        stroke: #fff;
      }

      .cls-2 {
        opacity: .27;
      }

      .cls-25 {
        letter-spacing: 0em;
      }

      .cls-26 {
        letter-spacing: .01em;
      }

      .cls-3 {
        opacity: .36;
      }

      .cls-27 {
        letter-spacing: -.02em;
      }

      .cls-4 {
        opacity: .23;
      }

      .cls-28 {
        letter-spacing: 0em;
      }

      .cls-28, .cls-29, .cls-30, .cls-31 {
        font-family: AnekLatin-Regular, 'Anek Latin';
        font-variation-settings: 'wght' 400, 'wdth' 100;
      }

      .cls-32 {
        letter-spacing: -.03em;
      }

      .cls-5 {
        opacity: .74;
      }

      .cls-33 {
        letter-spacing: 0em;
      }

      .cls-34 {
        letter-spacing: 0em;
      }

      .cls-35, .cls-36, .cls-37, .cls-31, .cls-38, .cls-39 {
        fill: #fff;
      }

      .cls-40 {
        letter-spacing: -.01em;
      }

      .cls-41 {
        fill: url(#Gradiente_sem_nome_17);
      }

      .cls-6 {
        opacity: .79;
      }

      .cls-42 {
        letter-spacing: -.01em;
      }

      .cls-8 {
        opacity: .61;
      }

      .cls-9 {
        opacity: .83;
      }

      .cls-43 {
        letter-spacing: 0em;
      }

      .cls-10 {
        opacity: .66;
      }

      .cls-11 {
        opacity: .91;
      }

      .cls-12 {
        opacity: .44;
      }

      .cls-13 {
        opacity: .31;
      }

      .cls-44 {
        letter-spacing: -.01em;
      }

      .cls-45 {
        letter-spacing: 0em;
      }

      .cls-46 {
        letter-spacing: -.08em;
      }

      .cls-47 {
        letter-spacing: 0em;
      }

      .cls-14 {
        opacity: .4;
      }

      .cls-48 {
        letter-spacing: 0em;
      }

      .cls-48, .cls-49, .cls-50, .cls-37, .cls-51 {
        font-family: AnekLatin-Bold, 'Anek Latin';
        font-variation-settings: 'wght' 700, 'wdth' 100;
        font-weight: 700;
      }

      .cls-52 {
        letter-spacing: 0em;
      }

      .cls-53 {
        letter-spacing: 0em;
      }

      .cls-15 {
        opacity: .57;
      }

      .cls-29 {
        letter-spacing: -.03em;
      }

      .cls-36 {
        font-family: MyriadPro-Regular, 'Myriad Pro';
        font-size: 12px;
      }

      .cls-16 {
        opacity: .14;
      }

      .cls-54 {
        letter-spacing: 0em;
      }

      .cls-17 {
        opacity: .96;
      }

      .cls-55 {
        letter-spacing: 0em;
      }

      .cls-49 {
        letter-spacing: -.01em;
      }

      .cls-56 {
        letter-spacing: 0em;
      }

      .cls-18 {
        stroke: url(#Gradiente_sem_nome_54);
      }

      .cls-37, .cls-31 {
        font-size: 43.89px;
      }

      .cls-57 {
        letter-spacing: 0em;
      }

      .cls-19 {
        stroke: url(#Gradiente_sem_nome_54-2);
      }

      .cls-20 {
        opacity: .19;
      }

      .cls-21 {
        opacity: .7;
      }

      .cls-58 {
        letter-spacing: -.01em;
      }

      .cls-22 {
        opacity: .49;
      }

      .cls-23 {
        opacity: .87;
      }

      .cls-59 {
        letter-spacing: -.01em;
      }

      .cls-51 {
        letter-spacing: 0em;
      }

      .cls-60 {
        letter-spacing: -.02em;
      }

      .cls-61 {
        letter-spacing: .03em;
      }

      .cls-38 {
        font-size: 32.13px;
      }

      .cls-24 {
        opacity: .53;
      }

      .cls-62 {
        letter-spacing: 0em;
      }

      .cls-63 {
        opacity: .5;
      }

      .cls-64 {
        letter-spacing: 0em;
      }

      .cls-65 {
        letter-spacing: 0em;
      }

      .cls-66 {
        letter-spacing: -.02em;
      }

      .cls-39 {
        font-family: AnekLatin-SemiBold, 'Anek Latin';
        font-size: 13.73px;
        font-variation-settings: 'wght' 600, 'wdth' 100;
        font-weight: 600;
      }
    </style>
    <linearGradient id="Gradiente_sem_nome_17" data-name="Gradiente sem nome 17" x1="670.97" y1="47.61" x2="-292.83" y2="1011.42" gradientUnits="userSpaceOnUse">
      <stop offset="0" stop-color="#023620"/>
      <stop offset="1" stop-color="#000"/>
    </linearGradient>
    <linearGradient id="Gradiente_sem_nome_54" data-name="Gradiente sem nome 54" x1="48.7" y1="695.17" x2="552.04" y2="695.17" gradientUnits="userSpaceOnUse">
      <stop offset="0" stop-color="#fff" stop-opacity=".2"/>
      <stop offset="1" stop-color="#fff"/>
    </linearGradient>
    <linearGradient id="Gradiente_sem_nome_54-2" data-name="Gradiente sem nome 54" y1="243.84" y2="243.84" xlink:href="#Gradiente_sem_nome_54"/>
  </defs>
  <rect class="cls-41" x="-14.36" y="-13.72" width="624" height="869.33"/>
  <g>
    <path class="cls-35" d="M134.12,89.71c-.58,0-.98-.14-1.25-.47s-.41-.78-.41-1.36v-1.42c0-.58.14-1.05.41-1.36.27-.31.68-.47,1.22-.47.37,0,.68.07.95.17.27.1.51.24.71.37l-.07-.95c-.14-.1-.27-.17-.44-.24s-.37-.14-.58-.17c-.2-.07.14-.07-.71-.07s-1.49.24-1.9.71c-.44.47-.64,1.12-.64,2v1.49c0,.88.24,1.56.64,2.03.41.47,1.05.71,1.9.71h0v-.07c.27,0,.51-.03.75-.07.24-.03.44-.1.61-.17.17-.07.31-.17.44-.24l.07-.98c-.24.14-.47.27-.75.37-.27.1-.37.17-.95.17Z"/>
    <path class="cls-35" d="M138.63,83.88l-2.03,6.68h1.05l.54-1.87h2.51l.54,1.87h1.05l-2.03-6.68h-1.63ZM138.44,87.81l.93-3.22h.14l.93,3.22h-2Z"/>
    <path class="cls-35" d="M145.99,83.91h-1.49v-.03h-1.02v6.68h1.02v-2.07h1.49c.78,0,1.32-.17,1.7-.54.37-.37.54-.85.54-1.49v-.51c0-.64-.17-1.12-.54-1.49-.37-.37-.92-.54-1.7-.54ZM147.17,86.39c0,.34-.07.64-.27.85-.2.2-.51.31-.92.31h-1.49v-2.78h1.49c.44,0,.75.1.92.31.17.2.27.51.27.88v.44Z"/>
    <rect class="cls-35" x="149.62" y="83.88" width="1.05" height="6.68"/>
    <polygon class="cls-35" points="156.6 84.76 156.6 83.88 151.62 83.88 151.62 84.76 153.58 84.76 153.58 90.56 154.64 90.56 154.64 84.76 156.6 84.76"/>
    <path class="cls-35" d="M158.43,83.88l-2.03,6.68h1.05l.54-1.87h2.51l.54,1.87h1.05l-2.03-6.68h-1.63ZM158.25,87.81l.93-3.22h.14l.93,3.22h-2Z"/>
    <polygon class="cls-35" points="164.37 83.88 163.32 83.88 163.32 90.56 163.89 90.56 164.37 90.56 167.39 90.56 167.39 89.68 164.37 89.68 164.37 83.88"/>
    <path class="cls-35" d="M48.66,74.35l-1.87,2.41,1.87,2.41c9.73,12.58,25.54,12.58,35.27,0l1.87-2.41-1.87-2.41c-9.73-12.58-25.54-12.58-35.27,0ZM73.62,76.59l.03-.03c.07,1.93-.61,3.76-1.93,5.19-1.32,1.42-3.12,2.24-5.05,2.31h-.27c-1.83,0-3.59-.68-4.92-1.93-1.09-.98-1.8-2.27-2.14-3.7-.03-.17.07-.34.24-.37.07,0,.17,0,.24.03.07.03.14.1.14.2.31,1.29.95,2.48,1.93,3.39,1.29,1.19,2.98,1.83,4.75,1.76s3.39-.81,4.61-2.1c1.19-1.29,1.83-2.98,1.76-4.75s-.81-3.39-2.1-4.58c-1.29-1.19-2.95-1.83-4.75-1.76-1.76.07-3.39.81-4.61,2.1-.31.31-.54.64-.78,1.02-.1.14-.31.2-.44.1-.07-.03-.14-.1-.14-.2,0-.07,0-.17.03-.24.24-.41.54-.78.85-1.12,1.32-1.42,3.12-2.24,5.05-2.31,1.93-.07,3.76.61,5.19,1.93,1.42,1.32,2.24,3.12,2.31,5.05ZM67.62,74.25c-.31.17-.51.51-.51.92,0,.57.46,1.04,1.03,1.02.4,0,.74-.21.91-.54.17.37.27.75.27,1.19,0,1.56-1.25,2.81-2.81,2.81s-2.81-1.25-2.81-2.81,1.25-2.81,2.81-2.81.78.07,1.12.24ZM68.36,74.38v.03c.07,0,.1,0,.17.07v.27s-.07-.03-.14-.07c-.07-.03-.14,0-.2,0h-.17s0,0,0,.03v.03l.07.03s.07,0,.14.03c.07,0,.14.07.2.07s.1.07.14.1c.03.03.03.1.03.17,0,.14-.03.24-.1.27-.03.03-.14.07-.2.07v.17h-.27v-.17h-.27v-.31s.07.03.14.07h.34s.03-.02.03-.07v-.07l-.07-.03c-.07-.03-.07,0-.1-.03-.07,0-.14-.07-.2-.07s-.1-.07-.14-.1c-.03-.03-.03-.1-.03-.17,0-.14.03-.2.1-.27.07-.03.1-.07.2-.07v-.17h.27v.17h.07ZM67.31,72.31l-.14.07c-1.19-.14-2.37.2-3.29.92-.95.75-1.53,1.8-1.66,2.98-.14,1.19.2,2.37.95,3.29s1.8,1.53,2.98,1.66c.92.1,1.83-.07,2.65-.51.78-.44,1.42-1.09,1.87-1.87.07-.17.27-.2.44-.14.07.03.14.1.17.2.03.1,0,.17,0,.24-.47.92-1.22,1.66-2.1,2.14-.75.41-1.59.61-2.41.61s-.41,0-.61-.03c-1.36-.17-2.58-.85-3.43-1.93-.85-1.09-1.22-2.41-1.09-3.76.17-1.36.85-2.58,1.93-3.43s2.41-1.22,3.76-1.05c1.9.24,3.53,1.49,4.21,3.29v.24c0,.07-.1.14-.17.17-.17.07-.34,0-.41-.2-.61-1.59-2-2.68-3.66-2.88ZM73.72,84.08c-1.93,1.93-4.51,2.98-7.26,2.98s-5.32-1.05-7.26-2.98c-1.93-1.93-2.98-4.51-2.98-7.26s1.05-5.32,2.98-7.26c1.93-1.93,4.51-2.98,7.26-2.98s.78,0,1.15.07c.07,0,.17.07.2.1.07.07.07.17.07.24s-.07.17-.1.2-.14.07-.24.07c-.37-.03-.75-.07-1.09-.07-2.58,0-4.99,1.02-6.78,2.81s-2.81,4.24-2.81,6.78,1.02,4.99,2.81,6.78,4.24,2.81,6.78,2.81,4.99-.98,6.78-2.81c1.8-1.8,2.81-4.24,2.81-6.78s-.64-4.07-1.9-5.73c-.07-.07-.07-.17-.07-.24s.07-.17.14-.2c.07-.07.14-.07.24-.07.07,0,.17.07.2.14,1.32,1.76,2.03,3.9,2.03,6.14s-1.05,5.32-2.98,7.26Z"/>
    <path class="cls-35" d="M68.16,76.18s-.02,0-.02,0c0,0,0,0,0,0h.03Z"/>
    <path class="cls-35" d="M101.94,68.92l2.75,4.61,1.46,2.51,2.1,3.56h3.87l-8.51-14.18h-1.93c-.71,0-1.39.37-1.76.98l-7.9,13.16h3.66l6.27-10.65Z"/>
    <path class="cls-35" d="M120.15,79.81c5.9,0,8.24-2.17,8.24-6.82v-8.38h-3.15v8.38c0,2.65-1.12,3.66-4.99,3.66s-5.02-1.02-5.02-3.66v-8.38h-3.32v8.38c0,4.65,2.34,6.82,8.24,6.82Z"/>
    <polygon class="cls-35" points="141.17 78.79 149.68 64.62 145.99 64.62 139.75 75.33 133.47 64.62 129.57 64.62 129.57 64.62 138.09 78.79 141.17 78.79"/>
    <path class="cls-35" d="M154.3,75.57h7.46c3.56,0,5.63-2.2,5.63-5.53s-2.07-5.43-5.63-5.43h-10.65v14.99h3.19v-4.04ZM161.76,67.84c1.59,0,2.51.92,2.51,2.31s-.95,2.31-2.51,2.31h-7.46v-4.61h7.46Z"/>
    <path class="cls-35" d="M92.88,87.98h35.64v-1.32h-36.96c0,.75.61,1.32,1.32,1.32Z"/>
  </g>
  <text class="cls-31" transform="translate(43.24 159.89)"><tspan x="0" y="0">RE</tspan><tspan class="cls-33" x="48.21" y="0">L</tspan><tspan class="cls-46" x="69.67" y="0">A</tspan><tspan class="cls-32" x="91.74" y="0">T</tspan><tspan x="113.84" y="0">ÓRIO</tspan></text>
  <text class="cls-38" transform="translate(44.27 769.74)"><tspan class="cls-28" x="0" y="0">S</tspan><tspan class="cls-29" x="16.56" y="0">U</tspan><tspan class="cls-30" x="35.34" y="0">A </tspan><tspan class="cls-51" x="60.76" y="0">C</tspan><tspan class="cls-50" x="77.53" y="0">A</tspan><tspan class="cls-49" x="97.54" y="0">R</tspan><tspan class="cls-48" x="116.61" y="0">TEIRA</tspan></text>
  <text class="cls-39" transform="translate(385.46 207.73)"><tspan x="0" y="0">DO</tspan><tspan class="cls-34" x="16.93" y="0">C</tspan><tspan class="cls-57" x="23.96" y="0">U</tspan><tspan class="cls-56" x="32.54" y="0">MEN</tspan><tspan class="cls-27" x="59.39" y="0">T</tspan><tspan x="66.6" y="0">O </tspan><tspan class="cls-42" x="77.97" y="0">C</tspan><tspan class="cls-62" x="84.89" y="0">ONFIDÊNCIAL</tspan></text>
  <text class="cls-37" transform="translate(43.24 207.89)"><tspan x="0" y="0">MEN</tspan><tspan class="cls-55" x="87.53" y="0">S</tspan><tspan x="111.14" y="0">AL</tspan></text>
  <g class="cls-63">
    <rect class="cls-1" x="46.93" y="270.73" width="235.11" height="235.11"/>
    <rect class="cls-16" x="65.08" y="283.93" width="224.2" height="224.2" transform="translate(-19.56 9.34) rotate(-2.86)"/>
    <rect class="cls-20" x="82.93" y="296.83" width="213.89" height="213.89" transform="translate(-41.23 22.1) rotate(-6.01)"/>
    <rect class="cls-4" x="100.43" y="309.37" width="204.3" height="204.3" transform="translate(-64.9 38.9) rotate(-9.46)"/>
    <rect class="cls-2" x="117.51" y="321.51" width="195.53" height="195.53" transform="translate(-90.31 60.45) rotate(-13.24)"/>
    <rect class="cls-13" x="134.14" y="333.18" width="187.68" height="187.68" transform="translate(-116.99 87.44) rotate(-17.35)"/>
    <rect class="cls-3" x="150.24" y="344.32" width="180.87" height="180.87" transform="translate(-144.25 120.48) rotate(-21.8)"/>
    <rect class="cls-14" x="165.75" y="354.89" width="175.24" height="175.24" transform="translate(-171.15 160.03) rotate(-26.57)"/>
    <rect class="cls-12" x="180.62" y="364.8" width="170.9" height="170.9" transform="translate(-196.51 206.24) rotate(-31.61)"/>
    <rect class="cls-22" x="194.8" y="374.03" width="167.94" height="167.94" transform="translate(-219.05 258.86) rotate(-36.87)"/>
    <rect class="cls-24" x="208.25" y="382.53" width="166.44" height="166.44" transform="translate(-237.49 317.18) rotate(-42.27)"/>
    <rect class="cls-15" x="220.95" y="390.27" width="166.44" height="166.44" transform="translate(-250.79 380.05) rotate(-47.73)"/>
    <rect class="cls-8" x="232.9" y="397.27" width="167.94" height="167.94" transform="translate(-258.24 445.99) rotate(-53.13)"/>
    <rect class="cls-10" x="244.11" y="403.53" width="170.9" height="170.9" transform="translate(-259.61 513.38) rotate(-58.39)"/>
    <rect class="cls-21" x="254.64" y="409.11" width="175.24" height="175.24" transform="translate(-255.09 580.71) rotate(-63.43)"/>
    <rect class="cls-5" x="264.52" y="414.04" width="180.87" height="180.87" transform="translate(-245.26 646.69) rotate(-68.2)"/>
    <rect class="cls-6" x="273.82" y="418.38" width="187.68" height="187.68" transform="translate(-230.91 710.36) rotate(-72.65)"/>
    <rect class="cls-9" x="282.59" y="422.2" width="195.53" height="195.53" transform="translate(-212.91 771.12) rotate(-76.76)"/>
    <rect class="cls-23" x="290.9" y="425.56" width="204.3" height="204.3" transform="translate(-192.1 828.66) rotate(-80.54)"/>
    <rect class="cls-11" x="298.81" y="428.51" width="213.89" height="213.89" transform="translate(-169.24 882.93) rotate(-83.99)"/>
    <rect class="cls-17" x="306.35" y="431.11" width="224.2" height="224.2" transform="translate(-144.97 934.01) rotate(-87.14)"/>
    <rect class="cls-7" x="313.59" y="433.4" width="235.11" height="235.11"/>
  </g>
  <line class="cls-18" x1="48.7" y1="695.17" x2="552.04" y2="695.17"/>
  <line class="cls-19" x1="48.7" y1="243.84" x2="552.04" y2="243.84"/>
  <text class="cls-36" transform="translate(394.88 741.24)"><tspan class="cls-60" x="0" y="0">P</tspan><tspan class="cls-65" x="6.19" y="0">r</tspan><tspan x="10.16" y="0">iscila Guima</tspan><tspan class="cls-52" x="70.03" y="0">r</tspan><tspan x="73.89" y="0">ães - </tspan><tspan class="cls-58" x="99.21" y="0">C</tspan><tspan x="106.04" y="0">onsul</tspan><tspan class="cls-47" x="133.49" y="0">t</tspan><tspan x="137.39" y="0">o</tspan><tspan class="cls-64" x="143.97" y="0">r</tspan><tspan x="147.95" y="0">ia</tspan><tspan class="cls-66" x="2.53" y="14.4">P</tspan><tspan x="8.62" y="14.4">e</tspan><tspan class="cls-61" x="14.63" y="14.4">r</tspan><tspan class="cls-53" x="18.91" y="14.4">fil de i</tspan><tspan class="cls-40" x="48.7" y="14.4">n</tspan><tspan class="cls-59" x="55.2" y="14.4">v</tspan><tspan x="60.85" y="14.4">estidor - </tspan><tspan class="cls-45" x="104.44" y="14.4">M</tspan><tspan x="114.16" y="14.4">ode</tspan><tspan class="cls-52" x="133.53" y="14.4">r</tspan><tspan class="cls-25" x="137.39" y="14.4">ado</tspan><tspan class="cls-58" x="-50.2" y="28.8">C</tspan><tspan x="-43.37" y="28.8">onsul</tspan><tspan class="cls-54" x="-15.92" y="28.8">t</tspan><tspan x="-12.02" y="28.8">or - Especialista em </tspan><tspan class="cls-26" x="85.98" y="28.8">I</tspan><tspan class="cls-44" x="88.97" y="28.8">n</tspan><tspan class="cls-59" x="95.47" y="28.8">v</tspan><tspan x="101.12" y="28.8">estime</tspan><tspan class="cls-43" x="134.69" y="28.8">n</tspan><tspan class="cls-54" x="141.3" y="28.8">t</tspan><tspan x="145.2" y="28.8">os</tspan></text>
</svg>